# Blender 4.2.16 LTS
# www.blender.org
mtllib escritorio.mtl
o Plano
v 2.400000 0.000000 2.000000
v 2.400000 0.000000 -2.000000
v 2.400000 4.000000 -2.000000
v 2.400000 4.000000 2.000000
v -4.000000 0.000000 2.000000
v -4.000000 0.000000 -2.000000
v -4.000000 4.000000 -2.000000
v -4.000000 4.000000 2.000000
v -0.400000 1.200000 2.000000
v -0.400000 1.200000 -2.000000
v 1.600000 1.200000 2.000000
v 1.600000 1.200000 -2.000000
v -1.200000 0.000000 2.000000
v -1.200000 0.000000 -2.000000
v -0.400000 2.800000 2.000000
v -0.400000 2.800000 -2.000000
v 1.600000 2.800000 2.000000
v 1.600000 2.800000 -2.000000
v -1.200000 2.800000 2.000000
v -1.200000 2.800000 -2.000000
v -3.200000 2.800000 2.000000
v -3.200000 2.800000 -2.000000
v -3.200000 0.000000 2.000000
v -3.200000 0.000000 -2.000000
v -1.200000 0.000000 2.400000
v -1.200000 2.800000 2.400000
v -3.200000 2.800000 2.400000
v -3.200000 0.000000 2.400000
v -0.400000 1.200000 2.400000
v 1.600000 1.200000 2.400000
v -0.400000 2.800000 2.400000
v 1.600000 2.800000 2.400000
v -0.400000 1.200000 -2.400000
v 1.600000 1.200000 -2.400000
v -1.200000 0.000000 -2.400000
v -0.400000 2.800000 -2.400000
v 1.600000 2.800000 -2.400000
v -1.200000 2.800000 -2.400000
v -3.200000 2.800000 -2.400000
v -3.200000 0.000000 -2.400000
v 2.400000 0.000000 -2.400000
v 2.400000 4.000000 -2.400000
v -4.000000 0.000000 -2.400000
v -4.000000 4.000000 -2.400000
v 8.000000 4.000000 2.400000
v 8.000000 0.000000 2.400000
v 8.000000 4.000000 4.800000
v 8.000000 0.000000 -2.400000
v 8.000000 4.000000 -2.400000
v 8.000000 4.000000 -4.800000
v 8.000000 0.000000 -4.800000
v 8.000000 0.000000 4.800000
v 2.400000 0.000000 2.400000
v 2.400000 4.000000 2.400000
v -4.000000 0.000000 2.400000
v -4.000000 4.000000 2.400000
v -4.000000 4.000000 -4.800000
v -4.000000 0.000000 -4.800000
v 2.400000 0.000000 -4.800000
v 2.400000 4.000000 -4.800000
v 2.400000 0.000000 4.800000
v 2.400000 4.000000 4.800000
v -4.000000 0.000000 4.800000
v -4.000000 4.000000 4.800000
v 6.400000 0.000000 -5.200000
v 4.400000 2.800000 -5.200000
v 4.400000 0.000000 -5.200000
v 6.400000 0.000000 -4.800000
v 6.400000 2.800000 -4.800000
v 4.400000 0.000000 -4.800000
v 4.400000 2.800000 -4.800000
v 6.400000 2.800000 -5.200000
v 4.000000 0.000000 -9.200000
v 6.800000 0.000000 -9.200000
v 4.000000 4.000000 -9.200000
v 6.800000 4.000000 -9.200000
v 6.800000 0.000000 -5.200000
v 4.000000 0.000000 -5.200000
v 4.000000 4.000000 -5.200000
v 6.800000 4.000000 -5.200000
v 20.000000 0.000000 -5.200000
v 20.000000 0.000000 12.000000
v 8.000000 0.000000 5.600000
v 8.000000 4.000000 -5.200000
v 8.000000 0.000000 -5.200000
v 8.000000 0.000000 7.600000
v 8.000000 2.800000 5.600000
v 8.000000 2.800000 7.600000
v 7.600000 0.000000 5.600000
v 7.600000 0.000000 7.600000
v 7.600000 2.800000 5.600000
v 7.600000 2.800000 7.600000
v 7.600000 0.000000 5.200000
v 7.600000 0.000000 12.000000
v 7.600000 4.000000 5.200000
v 7.600000 4.000000 12.000000
v 2.400000 0.000000 5.200000
v 2.400000 0.000000 12.000000
v 2.400000 4.000000 5.200000
v 2.400000 4.000000 12.000000
v 8.000000 0.000000 12.000000
v 20.000000 4.000000 -5.200000
v 8.000000 4.000000 12.000000
v 20.000000 4.000000 12.000000
vn -0.0000 -1.0000 -0.0000
vn -0.0000 -0.0000 1.0000
vn -0.0000 -0.0000 -1.0000
vn -0.0000 1.0000 -0.0000
vn -1.0000 -0.0000 -0.0000
vn 1.0000 -0.0000 -0.0000
vt 0.000000 0.000000
vt 1.000000 1.000000
vt 1.000000 0.000000
vt 0.000000 1.000000
s 0
f 8/1/1 3/2/1 4/3/1
f 12/4/2 14/4/2 2/4/2
f 1/1/3 9/1/3 11/1/3
f 9/1/3 19/1/3 15/1/3
f 4/3/3 15/1/3 19/1/3
f 6/4/2 22/4/2 7/4/2
f 14/1/4 24/4/4 23/1/4
f 7/4/2 20/1/2 16/1/2
f 5/1/3 21/1/3 23/1/3
f 10/1/2 20/1/2 14/1/2
f 4/3/5 2/2/5 1/3/5
f 6/4/6 8/1/6 5/1/6
f 11/1/3 4/3/3 1/1/3
f 3/2/2 12/4/2 2/2/2
f 8/1/1 7/4/1 3/2/1
f 12/4/2 10/4/2 14/4/2
f 1/1/3 13/1/3 9/1/3
f 9/1/3 13/1/3 19/1/3
f 21/1/3 8/1/3 19/1/3
f 8/1/3 4/3/3 19/1/3
f 4/3/3 17/1/3 15/1/3
f 6/4/2 24/4/2 22/4/2
f 13/1/4 1/3/4 2/4/4
f 13/1/4 2/4/4 14/1/4
f 6/4/4 5/1/4 23/1/4
f 23/1/4 13/1/4 14/1/4
f 24/4/4 6/4/4 23/1/4
f 18/4/2 3/2/2 16/1/2
f 3/2/2 7/4/2 16/1/2
f 7/4/2 22/4/2 20/1/2
f 5/1/3 8/1/3 21/1/3
f 10/1/2 16/1/2 20/1/2
f 4/3/5 3/2/5 2/2/5
f 6/4/6 7/4/6 8/1/6
f 11/1/3 17/1/3 4/3/3
f 3/2/2 18/4/2 12/4/2
f 23/1/4 25/1/4 13/1/4
f 21/1/6 28/1/6 23/1/6
f 19/1/1 27/1/1 21/1/1
f 13/1/5 26/1/5 19/1/5
f 15/1/6 29/1/6 9/1/6
f 11/1/5 32/1/5 17/1/5
f 9/1/4 30/1/4 11/1/4
f 17/1/1 31/1/1 15/1/1
f 22/4/1 38/1/1 20/1/1
f 12/4/4 33/4/4 10/4/4
f 16/1/1 37/4/1 18/4/1
f 20/1/5 35/1/5 14/1/5
f 10/1/6 36/1/6 16/1/6
f 18/4/5 34/4/5 12/4/5
f 24/4/6 39/4/6 22/4/6
f 14/1/4 40/4/4 24/4/4
f 34/4/3 41/4/3 35/4/3
f 43/4/3 44/4/3 39/4/3
f 44/4/3 36/1/3 38/1/3
f 33/1/3 35/1/3 38/1/3
f 42/2/3 41/2/3 34/4/3
f 34/4/3 35/4/3 33/4/3
f 43/4/3 39/4/3 40/4/3
f 37/4/3 36/1/3 42/2/3
f 42/2/3 36/1/3 44/4/3
f 44/4/3 38/1/3 39/4/3
f 33/1/3 38/1/3 36/1/3
f 42/2/3 34/4/3 37/4/3
f 30/4/2 25/4/2 53/4/2
f 55/4/2 27/4/2 56/4/2
f 56/4/2 26/1/2 31/1/2
f 29/1/2 26/1/2 25/1/2
f 54/2/2 30/4/2 53/2/2
f 30/4/2 29/4/2 25/4/2
f 55/4/2 28/4/2 27/4/2
f 32/4/2 54/2/2 31/1/2
f 54/2/2 56/4/2 31/1/2
f 56/4/2 27/4/2 26/1/2
f 29/1/2 31/1/2 26/1/2
f 54/2/2 32/4/2 30/4/2
f 56/4/6 63/4/6 55/4/6
f 54/2/1 47/2/1 62/2/1
f 54/2/1 64/4/1 56/4/1
f 25/4/4 28/4/4 63/4/4
f 43/4/6 57/4/6 44/4/6
f 71/2/2 59/2/2 70/2/2
f 44/4/1 60/2/1 42/2/1
f 40/4/4 35/4/4 58/4/4
f 59/2/2 57/4/2 58/4/2
f 61/2/3 64/4/3 62/2/3
f 42/2/3 48/2/3 41/2/3
f 62/2/3 52/2/3 61/2/3
f 61/2/4 46/4/4 53/4/4
f 60/2/1 49/2/1 42/2/1
f 53/2/2 45/2/2 54/2/2
f 68/2/4 70/2/4 48/2/4
f 49/2/6 46/2/6 48/2/6
f 51/2/2 69/2/2 68/2/2
f 66/1/3 80/1/3 72/1/3
f 71/2/2 50/2/2 60/2/2
f 68/2/4 67/2/4 70/2/4
f 73/2/2 76/2/2 75/2/2
f 71/2/6 67/2/6 66/1/6
f 65/2/5 69/2/5 72/1/5
f 69/2/1 66/1/1 72/1/1
f 67/2/4 65/2/4 74/2/4
f 66/1/3 78/1/3 79/1/3
f 72/1/3 77/1/3 65/2/3
f 79/1/6 73/2/6 75/2/6
f 77/1/5 76/2/5 74/2/5
f 79/1/1 76/2/1 80/1/1
f 52/2/6 87/2/6 83/2/6
f 51/2/6 84/2/6 50/2/6
f 83/1/4 90/1/4 86/1/4
f 87/2/2 89/2/2 83/2/2
f 86/1/3 92/1/3 88/1/3
f 92/1/1 87/1/1 88/1/1
f 92/1/5 95/1/5 91/1/5
f 93/1/5 91/2/5 95/1/5
f 92/1/5 94/1/5 96/1/5
f 90/1/4 89/2/4 97/1/4
f 97/1/6 100/1/6 98/1/6
f 99/1/2 93/1/2 95/1/2
f 98/1/3 96/1/3 94/1/3
f 100/1/1 95/1/1 96/1/1
f 88/1/6 47/1/6 103/1/6
f 101/1/6 88/1/6 103/1/6
f 46/4/4 52/2/4 82/1/4
f 81/1/2 84/2/2 85/2/2
f 101/1/3 104/1/3 82/1/3
f 82/1/5 102/1/5 81/1/5
f 49/2/1 102/1/1 45/2/1
f 23/1/4 28/1/4 25/1/4
f 21/1/6 27/1/6 28/1/6
f 19/1/1 26/1/1 27/1/1
f 13/1/5 25/1/5 26/1/5
f 15/1/6 31/1/6 29/1/6
f 11/1/5 30/1/5 32/1/5
f 9/1/4 29/1/4 30/1/4
f 17/1/1 32/1/1 31/1/1
f 22/4/1 39/4/1 38/1/1
f 12/4/4 34/4/4 33/4/4
f 16/1/1 36/1/1 37/4/1
f 20/1/5 38/1/5 35/1/5
f 10/1/6 33/1/6 36/1/6
f 18/4/5 37/4/5 34/4/5
f 24/4/6 40/4/6 39/4/6
f 14/1/4 35/1/4 40/4/4
f 56/4/6 64/4/6 63/4/6
f 54/2/1 45/2/1 47/2/1
f 54/2/1 62/2/1 64/4/1
f 28/4/4 55/4/4 63/4/4
f 63/4/4 61/2/4 25/4/4
f 61/2/4 53/4/4 25/4/4
f 43/4/6 58/4/6 57/4/6
f 71/2/2 60/2/2 59/2/2
f 44/4/1 57/4/1 60/2/1
f 35/4/4 41/2/4 59/2/4
f 59/2/4 58/4/4 35/4/4
f 58/4/4 43/4/4 40/4/4
f 59/2/2 60/2/2 57/4/2
f 61/2/3 63/4/3 64/4/3
f 42/2/3 49/2/3 48/2/3
f 62/2/3 47/2/3 52/2/3
f 61/2/4 52/2/4 46/4/4
f 60/2/1 50/2/1 49/2/1
f 53/2/2 46/2/2 45/2/2
f 70/2/4 59/2/4 41/2/4
f 41/2/4 48/2/4 70/2/4
f 48/2/4 51/2/4 68/2/4
f 49/2/6 45/2/6 46/2/6
f 51/2/2 50/2/2 69/2/2
f 66/1/3 79/1/3 80/1/3
f 71/2/2 69/2/2 50/2/2
f 68/2/4 65/2/4 67/2/4
f 73/2/2 74/2/2 76/2/2
f 71/2/6 70/2/6 67/2/6
f 65/2/5 68/2/5 69/2/5
f 69/2/1 71/2/1 66/1/1
f 65/2/4 77/1/4 74/2/4
f 74/2/4 73/2/4 67/2/4
f 73/2/4 78/1/4 67/2/4
f 66/1/3 67/2/3 78/1/3
f 72/1/3 80/1/3 77/1/3
f 79/1/6 78/1/6 73/2/6
f 77/1/5 80/1/5 76/2/5
f 79/1/1 75/2/1 76/2/1
f 52/2/6 47/2/6 87/2/6
f 51/2/6 85/2/6 84/2/6
f 83/1/4 89/1/4 90/1/4
f 87/2/2 91/2/2 89/2/2
f 86/1/3 90/1/3 92/1/3
f 92/1/1 91/1/1 87/1/1
f 92/1/5 96/1/5 95/1/5
f 93/1/5 89/2/5 91/2/5
f 92/1/5 90/1/5 94/1/5
f 98/1/4 94/1/4 90/1/4
f 89/2/4 93/1/4 97/1/4
f 98/1/4 90/1/4 97/1/4
f 97/1/6 99/1/6 100/1/6
f 99/1/2 97/1/2 93/1/2
f 98/1/3 100/1/3 96/1/3
f 100/1/1 99/1/1 95/1/1
f 88/1/6 87/1/6 47/1/6
f 101/1/6 86/1/6 88/1/6
f 86/1/4 101/1/4 82/1/4
f 82/1/4 81/1/4 46/4/4
f 81/1/4 85/2/4 51/2/4
f 81/1/4 51/2/4 48/2/4
f 83/1/4 86/1/4 82/1/4
f 52/2/4 83/1/4 82/1/4
f 81/1/4 48/2/4 46/4/4
f 81/1/2 102/1/2 84/2/2
f 101/1/3 103/1/3 104/1/3
f 82/1/5 104/1/5 102/1/5
f 50/2/1 84/2/1 102/1/1
f 102/1/1 104/1/1 45/2/1
f 104/1/1 103/1/1 47/2/1
f 104/1/1 47/2/1 45/2/1
f 49/2/1 50/2/1 102/1/1
